# xmcd CD database file
#
# Track frame offsets:
#	150
#	11828
#	35625
#	53540
#	73049
#	86223
#	105301
#	122658
#	155243
#
# Disc length: 2283 seconds
#
# Revision: 0
# Processed by: cddbd v1.5.2PL0 Copyright (c) Steve Scherf et al.
# Submitted via: CDex 1.51
#
DISCID=7508e909
DTITLE=Jimmy Giuffre - The Jimmy Giuffre 3
DYEAR=1957
DGENRE=Jazz
TTITLE0=Gotta Dance
TTITLE1=Two Kinds of Blues
TTITLE2=The Song Is You
TTITLE3=Crazy She Calls Me
TTITLE4=Voodoo
TTITLE5=My All
TTITLE6=That's The Way It Is
TTITLE7=Crawdad Suite
TTITLE8=The Train and The River
EXTD=YEAR: 1957
EXTT0=
EXTT1=
EXTT2=
EXTT3=
EXTT4=
EXTT5=
EXTT6=
EXTT7=
EXTT8=
PLAYORDER=
